<svg xmlns="http://www.w3.org/2000/svg" width="1280" height="720" viewBox="0 0 1280 720" role="img" aria-label="BinderNotes tutorial poster">
  <defs>
    <linearGradient id="bg" x1="0" x2="1" y1="0" y2="1">
      <stop offset="0" stop-color="#070b14"/>
      <stop offset="0.54" stop-color="#111827"/>
      <stop offset="1" stop-color="#1b1240"/>
    </linearGradient>
    <linearGradient id="accent" x1="0" x2="1" y1="0" y2="0">
      <stop offset="0" stop-color="#32d5c8"/>
      <stop offset="1" stop-color="#7c5cff"/>
    </linearGradient>
    <filter id="glow" x="-20%" y="-20%" width="140%" height="140%">
      <feGaussianBlur stdDeviation="18" result="blur"/>
      <feColorMatrix in="blur" type="matrix" values="0 0 0 0 0.20 0 0 0 0 0.84 0 0 0 0 0.78 0 0 0 .55 0"/>
      <feBlend in="SourceGraphic"/>
    </filter>
  </defs>
  <rect width="1280" height="720" fill="url(#bg)"/>
  <g opacity=".18">
    <path d="M0 120H1280M0 240H1280M0 360H1280M0 480H1280M0 600H1280M160 0V720M320 0V720M480 0V720M640 0V720M800 0V720M960 0V720M1120 0V720" stroke="#dbeafe" stroke-width="1"/>
  </g>
  <rect x="118" y="108" width="1044" height="504" rx="34" fill="#101827" stroke="#334155" stroke-width="2"/>
  <rect x="158" y="150" width="964" height="62" rx="18" fill="#172033"/>
  <circle cx="195" cy="181" r="12" fill="#32d5c8"/>
  <circle cx="232" cy="181" r="12" fill="#7c5cff"/>
  <circle cx="269" cy="181" r="12" fill="#dbeafe" opacity=".7"/>
  <rect x="162" y="260" width="430" height="262" rx="24" fill="#0b1220" stroke="#334155"/>
  <rect x="624" y="260" width="494" height="120" rx="24" fill="#0b1220" stroke="#334155"/>
  <rect x="624" y="402" width="494" height="120" rx="24" fill="#0b1220" stroke="#334155"/>
  <rect x="202" y="308" width="292" height="24" rx="12" fill="#dbeafe" opacity=".86"/>
  <rect x="202" y="364" width="334" height="18" rx="9" fill="#94a3b8" opacity=".65"/>
  <rect x="202" y="410" width="260" height="18" rx="9" fill="#94a3b8" opacity=".52"/>
  <rect x="668" y="302" width="260" height="20" rx="10" fill="#dbeafe" opacity=".78"/>
  <rect x="668" y="444" width="312" height="20" rx="10" fill="#dbeafe" opacity=".78"/>
  <rect x="190" y="550" width="296" height="42" rx="21" fill="url(#accent)" filter="url(#glow)"/>
  <text x="220" y="578" font-family="Inter, Arial, sans-serif" font-size="20" font-weight="700" fill="#06111b">BinderNotes tutorial</text>
  <path d="M996 564l34 18-34 18v-36z" fill="#32d5c8"/>
</svg>
